<svg width="120" height="120" viewBox="0 0 120 120" fill="none" xmlns="http://www.w3.org/2000/svg">
<path d="M72.0004 23.9996H96.0003V47.9993H120V71.9992H72.0004V23.9996Z" fill="#32267E"/>
<path d="M23.9999 47.9993H0V71.9992H23.9999V47.9993Z" fill="#32267E"/>
<path d="M48.0008 96.0001H72.0008V120H48.0008V96.0001Z" fill="#32267E"/>
<path d="M0 0H23.9999V23.9999H0V0Z" fill="#9E91F2"/>
<path d="M23.9999 96.0004H72.0007V72.0004H47.9995V47.9993H23.9996L23.9999 96.0004L0 96.0001V120H23.9999V96.0004Z" fill="#9E91F2"/>
<path d="M120 96.0001H96.0001V120H120V96.0001Z" fill="#9E91F2"/>
<path d="M48.0007 47.9996H72.0006V0H48.0007V47.9996Z" fill="#9E91F2"/>
<path d="M120 0H95.9999V23.9999H120V0Z" fill="#9E91F2"/>
</svg>
