<svg width="401" height="401" viewBox="0 0 401 401" fill="none" xmlns="http://www.w3.org/2000/svg">
<circle cx="200.623" cy="200.5" r="200" fill="url(#paint0_linear_3489_325)"/>
<path fill-rule="evenodd" clip-rule="evenodd" d="M137.077 128.962C133.611 128.962 129.954 131.977 129.293 135.379L103.516 267.987C103.226 269.478 103.62 270.42 104.054 270.946C104.487 271.471 105.337 272.038 106.856 272.038H145.803C149.268 272.038 152.926 269.022 153.587 265.621L176.11 149.75C177.137 144.468 180.829 140.577 185.492 139.268C190.178 137.953 195.402 139.395 198.848 143.641L234.339 186.698C234.339 186.698 234.339 186.698 234.339 186.698C237.787 190.881 236.802 195.962 234.877 199.086C232.923 202.257 229.207 204.974 224.543 204.974H201.242C200.527 204.974 199.828 205.22 198.966 206.232C197.998 207.367 197.082 209.236 196.476 211.669C195.882 214.057 195.692 216.576 195.854 218.664C195.997 220.516 196.361 221.394 196.453 221.616C196.478 221.677 196.483 221.689 196.457 221.657L237.085 270.943C237.536 271.49 238.417 272.038 239.889 272.038H282.121C283.08 272.038 284.231 271.42 284.934 270.279C285.258 269.753 285.33 269.348 285.333 269.175C285.334 269.161 285.333 269.149 285.333 269.14L241.605 216.09C241.605 216.09 241.605 216.09 241.605 216.09C238.006 211.724 236.619 206.298 238.042 201.426C239.518 196.372 243.949 192.575 249.853 192.575H264.301C271.984 192.575 278.464 188.942 283.557 182.902C288.719 176.78 292.238 168.383 293.587 159.805C294.946 151.167 293.996 143.09 291.111 137.47C288.413 132.214 284.036 128.962 277.126 128.962H137.077ZM117.121 133.013C118.915 123.785 127.675 116.563 137.077 116.563H277.126C289.114 116.563 297.524 122.812 302.142 131.808C306.573 140.441 307.466 151.367 305.836 161.732C304.196 172.158 299.892 182.763 293.037 190.894C286.114 199.106 276.383 204.974 264.301 204.974H249.926C249.85 205.361 249.823 206.566 251.172 208.203L294.923 261.28C299.116 266.363 298.028 272.666 295.489 276.785C292.922 280.95 288.082 284.437 282.121 284.437H239.889C235.18 284.437 230.607 282.576 227.52 278.834L227.519 278.832L186.893 229.548C184.554 226.713 183.737 222.794 183.492 219.62C183.225 216.175 183.537 212.323 184.444 208.675C185.34 205.073 186.925 201.244 189.528 198.189C192.237 195.011 196.178 192.575 201.242 192.575H223.115L189.264 151.507C189.25 151.491 189.237 151.475 189.224 151.459C189.121 151.332 189.042 151.269 189.001 151.24C188.959 151.212 188.935 151.204 188.928 151.201C188.918 151.198 188.894 151.192 188.842 151.206C188.79 151.221 188.702 151.261 188.607 151.365C188.522 151.458 188.368 151.673 188.282 152.116L165.759 267.987C163.965 277.215 155.203 284.437 145.803 284.437H106.856C101.941 284.437 97.4636 282.444 94.4861 278.832C91.5087 275.22 90.4073 270.445 91.3449 265.621L117.121 133.013Z" fill="white"/>
<defs>
<linearGradient id="paint0_linear_3489_325" x1="97.0528" y1="120.597" x2="343.747" y2="379.007" gradientUnits="userSpaceOnUse">
<stop stop-color="#9F91F3"/>
<stop offset="1" stop-color="#5948BF"/>
</linearGradient>
</defs>
</svg>
