<svg width="1000" height="171" viewBox="0 0 1000 171" fill="none" xmlns="http://www.w3.org/2000/svg">
<path d="M101.441 34.7793H135.255V68.5924H169.068V102.406H101.441V34.7793Z" fill="#32267E"/>
<path d="M33.8135 68.5924H0V102.406H33.8135V68.5924Z" fill="#32267E"/>
<path d="M67.6283 136.221H101.442V170.034H67.6283V136.221Z" fill="#32267E"/>
<path d="M0 0.966064H33.8135V34.7796H0V0.966064Z" fill="#9E91F2"/>
<path d="M33.8135 136.221H101.442V102.407H67.6265V68.5922H33.813L33.8135 136.221L0 136.221V170.034H33.8135V136.221Z" fill="#9E91F2"/>
<path d="M169.068 136.221H135.254V170.034H169.068V136.221Z" fill="#9E91F2"/>
<path d="M67.6281 68.5926H101.442V0.966064H67.6281V68.5926Z" fill="#9E91F2"/>
<path d="M169.068 0.966064H135.254V34.7796H169.068V0.966064Z" fill="#9E91F2"/>
<path d="M833.094 126.741L834.259 91.7626L799.28 92.9272V78.2259L834.259 79.3905L833.094 44.4121H847.796L846.631 79.3905L881.609 78.2259V92.9272L846.631 91.7626L847.796 126.741H833.094Z" fill="black"/>
<path d="M934.408 126.741L935.573 91.7626L900.595 92.9272V78.2259L935.573 79.3905L934.408 44.4121H949.11L947.946 79.3905L982.924 78.2259V92.9272L947.946 91.7626L949.11 126.741H934.408Z" fill="black"/>
<path fill-rule="evenodd" clip-rule="evenodd" d="M537.518 27.8696H556.63V79.1101C557.148 78.231 557.687 77.3712 558.247 76.532C562.56 69.9649 567.852 64.8689 574.125 61.2422C580.496 57.6161 587.552 55.8027 595.295 55.8027C603.43 55.8027 610.634 57.665 616.906 61.3895C623.179 65.0156 628.08 70.1122 631.608 76.6787C635.137 83.1479 636.901 90.7436 636.901 99.4663C636.901 108.091 635.137 115.687 631.608 122.254C628.08 128.82 623.179 133.966 616.906 137.69C610.634 141.317 603.43 143.13 595.295 143.13C587.552 143.13 580.496 141.317 574.125 137.69C567.852 134.064 562.56 128.968 558.247 122.401C557.938 121.93 557.636 121.455 557.34 120.974C557.099 120.583 556.863 120.188 556.63 119.789V141.072H537.518V27.8696ZM617.495 99.4663C617.495 93.8796 616.319 88.9791 613.966 84.7651C611.712 80.4521 608.576 77.1199 604.557 74.7675C600.539 72.3173 595.932 71.0925 590.738 71.0925C585.543 71.0925 580.643 72.3173 576.036 74.7675C571.528 77.1199 567.558 80.4521 564.128 84.7651C560.697 88.9791 557.904 93.8796 555.748 99.4663C557.904 105.053 560.697 110.002 564.128 114.315C567.558 118.529 571.528 121.862 576.036 124.312C580.643 126.664 585.543 127.841 590.738 127.841C595.932 127.841 600.539 126.664 604.557 124.312C608.576 121.862 611.712 118.529 613.966 114.315C616.319 110.002 617.495 105.053 617.495 99.4663Z" fill="black"/>
<path d="M671.917 27.8696H652.805V141.072H671.917V27.8696Z" fill="black"/>
<path fill-rule="evenodd" clip-rule="evenodd" d="M711.696 137.69C719.243 141.317 727.868 143.13 737.571 143.13C745.118 143.13 752.518 142.003 759.771 139.749C767.121 137.495 773.345 134.407 778.441 130.487V116.667C773.345 120.294 767.464 123.136 760.8 125.194C754.135 127.154 747.617 128.135 741.247 128.135C734.19 128.135 728.064 126.959 722.869 124.606C717.773 122.156 713.804 118.677 710.961 114.168C709.495 111.759 708.421 109.113 707.738 106.229H780.794C780.794 96.0363 778.932 87.1664 775.207 79.6196C771.483 72.0722 766.19 66.241 759.329 62.1247C752.567 57.9101 744.53 55.8027 735.219 55.8027C725.908 55.8027 717.626 57.665 710.373 61.3895C703.218 65.0156 697.583 70.1122 693.466 76.6792C689.448 83.1479 687.439 90.6947 687.439 99.3196C687.439 108.042 689.595 115.687 693.907 122.254C698.22 128.82 704.149 133.966 711.696 137.69ZM707.436 91.6744C708.005 88.7551 708.984 86.1087 710.373 83.7359C712.725 79.6196 715.96 76.4341 720.076 74.1796C724.291 71.9255 729.191 70.7985 734.778 70.7985C740.07 70.7985 744.628 71.8766 748.45 74.0328C752.371 76.0907 755.458 79.0805 757.712 83.0006C759.247 85.5583 760.343 88.4498 761.002 91.6744H707.436Z" fill="black"/>
<path fill-rule="evenodd" clip-rule="evenodd" d="M497.265 120.458L499.425 141.072H519.125L514.714 99.4663L519.125 57.8612H499.425L497.28 78.4323C497.105 78.1503 496.928 77.8705 496.748 77.593C496.601 77.3656 496.452 77.1392 496.302 76.9146L496.043 76.532C491.731 69.9655 486.389 64.8689 480.019 61.2422C473.746 57.6161 466.738 55.8027 458.995 55.8027C450.86 55.8027 443.657 57.665 437.384 61.3895C431.111 65.0156 426.211 70.1122 422.682 76.6792C419.154 83.1479 417.39 90.7436 417.39 99.4663C417.39 108.091 419.154 115.687 422.682 122.254C426.211 128.82 431.111 133.966 437.384 137.69C443.657 141.317 450.86 143.13 458.995 143.13C466.738 143.13 473.746 141.317 480.019 137.69C486.389 134.064 491.731 128.968 496.043 122.401C496.462 121.763 496.869 121.116 497.265 120.458ZM440.177 114.315C437.923 110.002 436.796 105.053 436.796 99.4663C436.796 93.8801 437.923 88.9791 440.177 84.7651C442.53 80.4526 445.715 77.1199 449.733 74.7681C453.752 72.3173 458.358 71.0925 463.553 71.0925C468.845 71.0925 473.746 72.3173 478.254 74.7681C482.763 77.1199 486.732 80.4526 490.163 84.7651C493.691 88.9791 496.484 93.8801 498.542 99.4663C496.484 105.053 493.691 110.002 490.163 114.315C486.732 118.529 482.763 121.862 478.254 124.312C473.746 126.664 468.845 127.841 463.553 127.841C458.358 127.841 453.752 126.664 449.733 124.312C445.715 121.862 442.53 118.529 440.177 114.315Z" fill="black"/>
<path d="M333.428 72.563V63.8886L351.217 59.3311L359.155 36.1027H370.329V57.8612H408.994V72.563H370.329V108.581C370.329 115.54 371.799 120.441 374.739 123.283C377.778 126.027 382.678 127.399 389.441 127.399C393.753 127.399 397.576 126.959 400.908 126.076C404.241 125.096 407.426 123.724 410.464 121.96V137.691C407.916 138.965 404.289 140.19 399.585 141.366C394.979 142.542 390.225 143.13 385.324 143.13C377.189 143.13 370.623 141.807 365.624 139.161C360.626 136.417 356.95 132.692 354.598 127.988C352.344 123.185 351.217 117.696 351.217 111.522V72.563H333.428Z" fill="black"/>
<path d="M239.965 105.2H220.265C220.657 112.747 223.205 119.362 227.91 125.047C232.614 130.732 238.985 135.191 247.022 138.426C255.156 141.562 264.516 143.13 275.102 143.13C285.491 143.13 294.557 141.709 302.3 138.866C310.14 135.926 316.217 131.81 320.53 126.517C324.842 121.225 326.998 115.05 326.998 107.993C326.998 101.916 325.773 96.9672 323.323 93.1443C320.873 89.2242 316.756 86.1366 310.973 83.8826C305.289 81.5302 297.497 79.6679 287.598 78.2958L263.487 74.9148C255.548 73.8367 249.962 72.2684 246.728 70.21C243.591 68.0538 242.023 65.0156 242.023 61.0949C242.023 55.9983 244.718 51.9799 250.109 49.0395C255.499 46.0992 262.703 44.6293 271.72 44.6293C278.091 44.6293 283.628 45.4623 288.333 47.1284C293.038 48.6966 296.762 50.9018 299.506 53.7443C302.348 56.5863 304.015 59.9679 304.505 63.8886H324.205C323.813 56.8314 321.314 50.7062 316.707 45.5112C312.199 40.219 306.122 36.1022 298.477 33.1618C290.832 30.2215 282.06 28.7516 272.161 28.7516C262.164 28.7516 253.441 30.1237 245.992 32.8678C238.544 35.5142 232.761 39.3365 228.644 44.3353C224.626 49.2357 222.617 55.0675 222.617 61.8302C222.617 70.749 225.606 77.659 231.585 82.5594C237.661 87.362 247.364 90.6452 260.694 92.4097L284.511 95.4967C293.234 96.5748 299.261 98.192 302.594 100.348C305.926 102.504 307.592 105.739 307.592 110.051C307.592 115.344 304.701 119.559 298.918 122.695C293.136 125.733 285.295 127.252 275.396 127.252C268.731 127.252 262.85 126.37 257.754 124.606C252.657 122.744 248.541 120.147 245.404 116.814C242.366 113.482 240.553 109.611 239.965 105.2Z" fill="black"/>
</svg>
